<?xml version="1.0" encoding="utf-8"?>
<!-- Generator: Adobe Illustrator 26.5.0, SVG Export Plug-In . SVG Version: 6.00 Build 0)  -->
<svg version="1.1" id="Calque_1" xmlns="http://www.w3.org/2000/svg" xmlns:xlink="http://www.w3.org/1999/xlink" x="0px" y="0px"
	 viewBox="0 0 398 368" style="enable-background:new 0 0 398 368;" xml:space="preserve">
<style type="text/css">
	.st1{fill:#FFD369;}
	.st2{fill:none;stroke:#FFD369;stroke-width:6;stroke-miterlimit:10;}
</style>
<image style="display:none;overflow:visible;" width="398" height="368" xlink:href="11.png" >
</image>
<path class="st1" d="M220.2,323.8H73.8c-1.6,0-2.8-1.3-2.8-2.8l0,0c0-1.6,1.3-2.8,2.8-2.8h146.4c1.6,0,2.8,1.3,2.8,2.8l0,0
	C223,322.6,221.7,323.8,220.2,323.8z"/>
<path class="st1" d="M293.3,50.8H147c-1.6,0-2.8-1.3-2.8-2.8v0c0-1.6,1.3-2.8,2.8-2.8h146.4c1.6,0,2.8,1.3,2.8,2.8v0
	C296.2,49.6,294.9,50.8,293.3,50.8z"/>
<path class="st1" d="M290.5,85V48c0-1.6,1.3-2.8,2.8-2.8h0c1.6,0,2.8,1.3,2.8,2.8V85c0,1.6-1.3,2.8-2.8,2.8h0
	C291.8,87.8,290.5,86.5,290.5,85z"/>
<path class="st1" d="M290.5,236v-94c0-1.6,1.3-2.8,2.8-2.8h0c1.6,0,2.8,1.3,2.8,2.8v94c0,1.6-1.3,2.8-2.8,2.8h0
	C291.8,238.8,290.5,237.5,290.5,236z"/>
<path class="st1" d="M259.7,214.1l31-53.7c0.8-1.3,2.5-1.8,3.9-1l0,0c1.3,0.8,1.8,2.5,1,3.9l-31,53.7c-0.8,1.3-2.5,1.8-3.9,1h0
	C259.4,217.2,259,215.4,259.7,214.1z"/>
<path class="st1" d="M259.7,288.8l31-53.7c0.8-1.3,2.5-1.8,3.9-1l0,0c1.3,0.8,1.8,2.5,1,3.9l-31,53.7c-0.8,1.3-2.5,1.8-3.9,1h0
	C259.4,291.8,259,290.1,259.7,288.8z"/>
<path class="st1" d="M322.1,217.6l-31-53.7c-0.8-1.3-0.3-3.1,1-3.9l0,0c1.3-0.8,3.1-0.3,3.9,1l31,53.7c0.8,1.3,0.3,3.1-1,3.9l0,0
	C324.6,219.4,322.8,219,322.1,217.6z"/>
<path class="st1" d="M322.4,291.7l-31-53.7c-0.8-1.3-0.3-3.1,1-3.9l0,0c1.3-0.8,3.1-0.3,3.9,1l31,53.7c0.8,1.3,0.3,3.1-1,3.9l0,0
	C324.9,293.5,323.2,293,322.4,291.7z"/>
<path class="st1" d="M149.8,48v273c0,1.6-1.3,2.8-2.8,2.8l0,0c-1.6,0-2.8-1.3-2.8-2.8V48c0-1.6,1.3-2.8,2.8-2.8l0,0
	C148.5,45.2,149.8,46.5,149.8,48z"/>
<circle class="st2" cx="293.3" cy="112.2" r="26.9"/>
</svg>
